<svg xmlns="http://www.w3.org/2000/svg" viewBox="0 0 1200 630" width="1200" height="630" role="img" aria-label="LockedIn AI review, pricing and alternative">
  <defs>
    <linearGradient id="bg" x1="0" y1="0" x2="1" y2="1"><stop offset="0" stop-color="#07130d"/><stop offset="1" stop-color="#0d2b1d"/></linearGradient>
    <radialGradient id="glow" cx="0.8" cy="0.2" r="0.55"><stop offset="0" stop-color="#00ff88" stop-opacity="0.28"/><stop offset="1" stop-color="#00ff88" stop-opacity="0"/></radialGradient>
  </defs>
  <rect width="1200" height="630" fill="url(#bg)"/>
  <rect width="1200" height="630" fill="url(#glow)"/>
  <g stroke="#2ecc71" stroke-opacity="0.06" stroke-width="1"><path d="M0 105H1200M0 210H1200M0 315H1200M0 420H1200M0 525H1200"/><path d="M150 0V630M350 0V630M550 0V630M750 0V630M950 0V630"/></g>
  <g transform="translate(80,80)">
    <rect x="0" y="0" width="164" height="34" rx="17" fill="#2ecc71" fill-opacity="0.12" stroke="#2ecc71" stroke-opacity="0.4"/>
    <circle cx="22" cy="17" r="5" fill="#00ff88"/>
    <text x="40" y="22" font-family="Segoe UI, Arial, sans-serif" font-size="15" font-weight="700" fill="#00ff88" letter-spacing="1">HONEST REVIEW</text>
  </g>
  <text x="80" y="248" font-family="Segoe UI, Arial, sans-serif" font-size="70" font-weight="900" fill="#ffffff" letter-spacing="-1">LockedIn AI</text>
  <text x="80" y="322" font-family="Segoe UI, Arial, sans-serif" font-size="70" font-weight="900" fill="#ffffff" letter-spacing="-1"><tspan fill="#2ecc71">Review</tspan> &amp; Alternative</text>
  <text x="80" y="364" font-family="Segoe UI, Arial, sans-serif" font-size="26" font-weight="500" fill="#9fb3a8">A free tier, but browser-based. Pricing,</text>
  <text x="80" y="400" font-family="Segoe UI, Arial, sans-serif" font-size="26" font-weight="500" fill="#9fb3a8">visibility, and the better option.</text>
  <g transform="translate(950,300)" font-family="Segoe UI, Arial, sans-serif">
    <circle cx="0" cy="0" r="150" fill="#2ecc71" fill-opacity="0.04" stroke="#2ecc71" stroke-opacity="0.16"/>
    <g transform="translate(0,-52)">
      <rect x="-46" y="0" width="92" height="72" rx="12" fill="#0d2b1d" stroke="#2ecc71" stroke-opacity="0.5"/>
      <path d="M-28 0 v-16 a28 28 0 0 1 56 0 v16" fill="none" stroke="#9fb3a8" stroke-width="7"/>
      <circle cx="0" cy="34" r="8" fill="#00ff88"/>
      <rect x="-3" y="34" width="6" height="18" fill="#00ff88"/>
    </g>
    <text x="0" y="66" text-anchor="middle" font-size="26" font-weight="800" fill="#ffffff">~$49.99/mo</text>
    <g transform="translate(0,86)">
      <rect x="-120" y="0" width="240" height="38" rx="19" fill="#f59e0b" fill-opacity="0.1" stroke="#f59e0b" stroke-opacity="0.4"/>
      <text x="0" y="25" text-anchor="middle" font-size="14" font-weight="700" fill="#f59e0b">browser-based, can be visible</text>
    </g>
  </g>
  <g transform="translate(80,562)">
    <path d="M0 -12 L15 -4 V10 C15 20 8 28 0 31 C-8 28 -15 20 -15 10 V-4 Z" transform="translate(10,0)" fill="#2ecc71"/>
    <text x="34" y="6" font-family="Segoe UI, Arial, sans-serif" font-size="22" font-weight="800" fill="#ffffff">CloakAI</text>
    <text x="150" y="6" font-family="Segoe UI, Arial, sans-serif" font-size="16" fill="#6f8378">The AI only you can see</text>
  </g>
</svg>