<svg xmlns="http://www.w3.org/2000/svg" viewBox="0 0 1200 630" width="1200" height="630" role="img" aria-label="Undetectable AI interview assistant, hidden from screen capture">
  <defs>
    <linearGradient id="bg" x1="0" y1="0" x2="1" y2="1"><stop offset="0" stop-color="#07130d"/><stop offset="1" stop-color="#0d2b1d"/></linearGradient>
    <radialGradient id="glow" cx="0.8" cy="0.2" r="0.55"><stop offset="0" stop-color="#00ff88" stop-opacity="0.28"/><stop offset="1" stop-color="#00ff88" stop-opacity="0"/></radialGradient>
  </defs>
  <rect width="1200" height="630" fill="url(#bg)"/>
  <rect width="1200" height="630" fill="url(#glow)"/>
  <g stroke="#2ecc71" stroke-opacity="0.06" stroke-width="1"><path d="M0 105H1200M0 210H1200M0 315H1200M0 420H1200M0 525H1200"/><path d="M150 0V630M350 0V630M550 0V630M750 0V630M950 0V630"/></g>
  <g transform="translate(80,80)">
    <rect x="0" y="0" width="108" height="34" rx="17" fill="#2ecc71" fill-opacity="0.12" stroke="#2ecc71" stroke-opacity="0.4"/>
    <circle cx="22" cy="17" r="5" fill="#00ff88"/>
    <text x="40" y="22" font-family="Segoe UI, Arial, sans-serif" font-size="15" font-weight="700" fill="#00ff88" letter-spacing="1">GUIDE</text>
  </g>
  <text x="80" y="248" font-family="Segoe UI, Arial, sans-serif" font-size="66" font-weight="900" fill="#ffffff" letter-spacing="-1">Undetectable AI</text>
  <text x="80" y="320" font-family="Segoe UI, Arial, sans-serif" font-size="66" font-weight="900" fill="#ffffff" letter-spacing="-1">Interview <tspan fill="#2ecc71">Assistant</tspan></text>
  <text x="80" y="362" font-family="Segoe UI, Arial, sans-serif" font-size="26" font-weight="500" fill="#9fb3a8">What invisible on screen share really</text>
  <text x="80" y="398" font-family="Segoe UI, Arial, sans-serif" font-size="26" font-weight="500" fill="#9fb3a8">means, and the honest limits.</text>
  <g transform="translate(820,180)" font-family="Segoe UI, Arial, sans-serif">
    <rect x="0" y="0" width="300" height="200" rx="14" fill="#06120c" stroke="#2ecc71" stroke-opacity="0.25"/>
    <rect x="16" y="16" width="268" height="120" rx="8" fill="#0a1f15" stroke="#ffffff" stroke-opacity="0.06"/>
    <rect x="150" y="70" width="120" height="80" rx="10" fill="#0d2b1d" stroke="#00ff88" stroke-opacity="0.7"/>
    <circle cx="168" cy="90" r="6" fill="#00ff88"/>
    <text x="182" y="95" font-size="12" font-weight="700" fill="#00ff88">Answer</text>
    <rect x="166" y="106" width="86" height="7" rx="3" fill="#2ecc71" fill-opacity="0.5"/>
    <rect x="166" y="120" width="64" height="7" rx="3" fill="#2ecc71" fill-opacity="0.35"/>
    <path d="M120 230 h60 v-14 h-60 z" fill="#0a1f15" stroke="#2ecc71" stroke-opacity="0.2"/>
    <rect x="70" y="230" width="160" height="10" rx="5" fill="#0a1f15" stroke="#2ecc71" stroke-opacity="0.2"/>
    <g transform="translate(150,300)">
      <path d="M-70 0 C-44 -40 44 -40 70 0 C44 40 -44 40 -70 0 Z" fill="none" stroke="#00ff88" stroke-width="4"/>
      <circle cx="0" cy="0" r="20" fill="none" stroke="#00ff88" stroke-width="4"/>
      <circle cx="0" cy="0" r="8" fill="#00ff88"/>
      <line x1="-78" y1="-30" x2="78" y2="30" stroke="#ff5c5c" stroke-width="6" stroke-linecap="round"/>
      <text x="0" y="58" text-anchor="middle" font-size="16" font-weight="700" fill="#9fb3a8">hidden from screen capture</text>
    </g>
  </g>
  <g transform="translate(80,562)">
    <path d="M0 -12 L15 -4 V10 C15 20 8 28 0 31 C-8 28 -15 20 -15 10 V-4 Z" transform="translate(10,0)" fill="#2ecc71"/>
    <text x="34" y="6" font-family="Segoe UI, Arial, sans-serif" font-size="22" font-weight="800" fill="#ffffff">CloakAI</text>
    <text x="150" y="6" font-family="Segoe UI, Arial, sans-serif" font-size="16" fill="#6f8378">The AI only you can see</text>
  </g>
</svg>