<svg xmlns="http://www.w3.org/2000/svg" viewBox="0 0 1200 630" width="1200" height="630" role="img" aria-label="What is Cloaked AI, the invisible interview assistant explained">
  <defs>
    <linearGradient id="bg" x1="0" y1="0" x2="1" y2="1"><stop offset="0" stop-color="#07130d"/><stop offset="1" stop-color="#0d2b1d"/></linearGradient>
    <radialGradient id="glow" cx="0.8" cy="0.22" r="0.55"><stop offset="0" stop-color="#00ff88" stop-opacity="0.28"/><stop offset="1" stop-color="#00ff88" stop-opacity="0"/></radialGradient>
  </defs>
  <rect width="1200" height="630" fill="url(#bg)"/>
  <rect width="1200" height="630" fill="url(#glow)"/>
  <g stroke="#2ecc71" stroke-opacity="0.06" stroke-width="1"><path d="M0 105H1200M0 210H1200M0 315H1200M0 420H1200M0 525H1200"/><path d="M150 0V630M350 0V630M550 0V630M750 0V630M950 0V630"/></g>
  <g transform="translate(80,80)">
    <rect x="0" y="0" width="150" height="34" rx="17" fill="#2ecc71" fill-opacity="0.12" stroke="#2ecc71" stroke-opacity="0.4"/>
    <circle cx="22" cy="17" r="5" fill="#00ff88"/>
    <text x="40" y="22" font-family="Segoe UI, Arial, sans-serif" font-size="15" font-weight="700" fill="#00ff88" letter-spacing="1">EXPLAINER</text>
  </g>
  <text x="80" y="258" font-family="Segoe UI, Arial, sans-serif" font-size="74" font-weight="900" fill="#ffffff" letter-spacing="-1">What Is <tspan fill="#2ecc71">Cloaked AI</tspan>?</text>
  <text x="80" y="326" font-family="Segoe UI, Arial, sans-serif" font-size="30" font-weight="600" fill="#c9d6cf">The invisible AI interview assistant, explained.</text>
  <text x="80" y="384" font-family="Segoe UI, Arial, sans-serif" font-size="22" font-weight="500" fill="#7f9488">Also spelled cloak ai, clock ai, cloaked ai, cloak gpt.</text>
  <!-- eye hidden from capture illustration -->
  <g transform="translate(950,300)">
    <circle cx="0" cy="0" r="150" fill="#2ecc71" fill-opacity="0.05" stroke="#2ecc71" stroke-opacity="0.2"/>
    <circle cx="0" cy="0" r="112" fill="none" stroke="#2ecc71" stroke-opacity="0.14"/>
    <path d="M-110 0 C-70 -68 70 -68 110 0 C70 68 -70 68 -110 0 Z" fill="none" stroke="#00ff88" stroke-width="4"/>
    <circle cx="0" cy="0" r="34" fill="none" stroke="#00ff88" stroke-width="4"/>
    <circle cx="0" cy="0" r="13" fill="#00ff88"/>
    <line x1="-120" y1="-72" x2="120" y2="72" stroke="#ff5c5c" stroke-width="6" stroke-linecap="round"/>
    <text x="0" y="118" text-anchor="middle" font-family="Segoe UI, Arial, sans-serif" font-size="18" font-weight="700" fill="#9fb3a8">unseen on screen share</text>
  </g>
  <g transform="translate(80,562)">
    <path d="M0 -12 L15 -4 V10 C15 20 8 28 0 31 C-8 28 -15 20 -15 10 V-4 Z" transform="translate(10,0)" fill="#2ecc71"/>
    <text x="34" y="6" font-family="Segoe UI, Arial, sans-serif" font-size="22" font-weight="800" fill="#ffffff">CloakAI</text>
    <text x="150" y="6" font-family="Segoe UI, Arial, sans-serif" font-size="16" fill="#6f8378">The AI only you can see</text>
  </g>
</svg>
